HIERARCHY
ROOT hip
{
  OFFSET 0 0 0
  CHANNELS 6 Xposition Yposition Zposition Zrotation Yrotation Xrotation
  JOINT abdomen
  {
    OFFSET 0 20.6881 -0.73152
    CHANNELS 3 Zrotation Xrotation Yrotation
    JOINT chest
    {
      OFFSET 0 11.7043 -0.48768
      CHANNELS 3 Zrotation Xrotation Yrotation
      JOINT neck
      {
        OFFSET 0 22.1894 -2.19456
        CHANNELS 3 Zrotation Xrotation Yrotation
        JOINT head
        {
          OFFSET -0.24384 7.07133 1.2192
          CHANNELS 3 Zrotation Xrotation Yrotation
          JOINT leftEye
          {
            OFFSET 4.14528 8.04674 8.04672
            CHANNELS 3 Zrotation Xrotation Yrotation
            End Site
            {
              OFFSET 1 0 0
            }
          }
          JOINT rightEye
          {
            OFFSET -3.6576 8.04674 8.04672
            CHANNELS 3 Zrotation Xrotation Yrotation
            End Site
            {
              OFFSET 1 0 0
            }
          }
        }
      }
      JOINT rCollar
      {
        OFFSET -2.68224 19.2634 -4.8768
        CHANNELS 3 Zrotation Xrotation Yrotation
        JOINT rShldr
        {
          OFFSET -8.77824 -1.95073 1.46304
          CHANNELS 3 Zrotation Xrotation Yrotation
          JOINT rForeArm
          {
            OFFSET -28.1742 -1.7115 0.48768
            CHANNELS 3 Zrotation Xrotation Yrotation
            JOINT rHand
            {
              OFFSET -22.5879 0.773209 7.07136
              CHANNELS 3 Zrotation Xrotation Yrotation
              JOINT rThumb1
              {
                OFFSET -1.2192 -0.487915 3.41376
                CHANNELS 3 Zrotation Xrotation Yrotation
                JOINT rThumb2
                {
                  OFFSET -3.37035 -0.52449 3.41376
                  CHANNELS 3 Zrotation Xrotation Yrotation
                  End Site
                  {
                    OFFSET -1.78271 -1.18214 1.43049
                  }
                }
              }
              JOINT rIndex1
              {
                OFFSET -7.75947 0.938293 5.60832
                CHANNELS 3 Zrotation Xrotation Yrotation
                JOINT rIndex2
                {
                  OFFSET -2.54057 -0.884171 1.56538
                  CHANNELS 3 Zrotation Xrotation Yrotation
                  End Site
                  {
                    OFFSET -1.62519 -0.234802 1.16502
                  }
                }
              }
              JOINT rMid1
              {
                OFFSET -8.24714 1.18213 3.41376
                CHANNELS 3 Zrotation Xrotation Yrotation
                JOINT rMid2
                {
                  OFFSET -3.10165 -0.590103 1.0647
                  CHANNELS 3 Zrotation Xrotation Yrotation
                  End Site
                  {
                    OFFSET -2.48547 -0.328903 0.83742
                  }
                }
              }
              JOINT rRing1
              {
                OFFSET -8.82822 0.546677 1.51678
                CHANNELS 3 Zrotation Xrotation Yrotation
                JOINT rRing2
                {
                  OFFSET -2.60934 -0.819778 -0.0198488
                  CHANNELS 3 Zrotation Xrotation Yrotation
                  End Site
                  {
                    OFFSET -2.33842 -0.294052 0.168128
                  }
                }
              }
              JOINT rPinky1
              {
                OFFSET -8.27202 -0.0477905 -0.4584
                CHANNELS 3 Zrotation Xrotation Yrotation
                JOINT rPinky2
                {
                  OFFSET -1.82734 -0.647385 -0.700984
                  CHANNELS 3 Zrotation Xrotation Yrotation
                  End Site
                  {
                    OFFSET -1.69225 -0.51767 -0.607171
                  }
                }
              }
            }
          }
        }
      }
      JOINT lCollar
      {
        OFFSET 2.68224 19.2634 -4.8768
        CHANNELS 3 Zrotation Xrotation Yrotation
        JOINT lShldr
        {
          OFFSET 8.77824 -1.95073 1.46304
          CHANNELS 3 Zrotation Xrotation Yrotation
          JOINT lForeArm
          {
            OFFSET 28.1742 -1.7115 0.48768
            CHANNELS 3 Zrotation Xrotation Yrotation
            JOINT lHand
            {
              OFFSET 22.5879 0.773209 7.07136
              CHANNELS 3 Zrotation Xrotation Yrotation
              JOINT lThumb1
              {
                OFFSET 1.2192 -0.487915 3.41376
                CHANNELS 3 Zrotation Xrotation Yrotation
                JOINT lThumb2
                {
                  OFFSET 3.37035 -0.52449 3.41376
                  CHANNELS 3 Zrotation Xrotation Yrotation
                  End Site
                  {
                    OFFSET 1.78271 -1.18214 1.43049
                  }
                }
              }
              JOINT lIndex1
              {
                OFFSET 7.75947 0.938293 5.60832
                CHANNELS 3 Zrotation Xrotation Yrotation
                JOINT lIndex2
                {
                  OFFSET 2.54057 -0.884171 1.56538
                  CHANNELS 3 Zrotation Xrotation Yrotation
                  End Site
                  {
                    OFFSET 1.62519 -0.234802 1.16502
                  }
                }
              }
              JOINT lMid1
              {
                OFFSET 8.24714 1.18213 3.41376
                CHANNELS 3 Zrotation Xrotation Yrotation
                JOINT lMid2
                {
                  OFFSET 3.10165 -0.590103 1.0647
                  CHANNELS 3 Zrotation Xrotation Yrotation
                  End Site
                  {
                    OFFSET 2.48547 -0.328903 0.83742
                  }
                }
              }
              JOINT lRing1
              {
                OFFSET 8.82822 0.546677 1.51678
                CHANNELS 3 Zrotation Xrotation Yrotation
                JOINT lRing2
                {
                  OFFSET 2.60934 -0.819778 -0.0198488
                  CHANNELS 3 Zrotation Xrotation Yrotation
                  End Site
                  {
                    OFFSET 2.33842 -0.294052 0.168128
                  }
                }
              }
              JOINT lPinky1
              {
                OFFSET 8.27202 -0.0477905 -0.4584
                CHANNELS 3 Zrotation Xrotation Yrotation
                JOINT lPinky2
                {
                  OFFSET 1.82734 -0.647385 -0.700984
                  CHANNELS 3 Zrotation Xrotation Yrotation
                  End Site
                  {
                    OFFSET 1.69225 -0.51767 -0.607171
                  }
                }
              }
            }
          }
        }
      }
    }
  }
  JOINT rButtock
  {
    OFFSET -8.77824 4.35084 1.2192
    CHANNELS 3 Zrotation Xrotation Yrotation
    JOINT rThigh
    {
      OFFSET 0 -1.70687 -2.19456
      CHANNELS 3 Zrotation Xrotation Yrotation
      JOINT rShin
      {
        OFFSET 0 -36.8199 0.73152
        CHANNELS 3 Zrotation Xrotation Yrotation
        JOINT rFoot
        {
          OFFSET 0.73152 -45.1104 -5.12064
          CHANNELS 3 Zrotation Xrotation Yrotation
          End Site
          {
            OFFSET -1.1221 -3.69964 12.103
          }
        }
      }
    }
  }
  JOINT lButtock
  {
    OFFSET 8.77824 4.35084 1.2192
    CHANNELS 3 Zrotation Xrotation Yrotation
    JOINT lThigh
    {
      OFFSET 0 -1.70687 -2.19456
      CHANNELS 3 Zrotation Xrotation Yrotation
      JOINT lShin
      {
        OFFSET 0 -36.8199 0.73152
        CHANNELS 3 Zrotation Xrotation Yrotation
        JOINT lFoot
        {
          OFFSET -0.73152 -45.1104 -5.12064
          CHANNELS 3 Zrotation Xrotation Yrotation
          End Site
          {
            OFFSET 1.1221 -3.69964 12.103
          }
        }
      }
    }
  }
}
MOTION
Frames:	5
Frame Time:	0.03333
-1.4345 67.9765 1.4352 179.060834 -49.314919 -173.301571 -10.871154 7.80766 1.040386 7.518904 -8.771738 -16.116375 6.568019 38.481263 132.114091 -28.687897 31.675402 172.610852 -0.000568 0.0 -7.7e-05 -0.000568 0.0 -7.7e-05 3.353923 -63.354722 -13.492423 112.786483 49.330456 -85.707727 172.430555 15.77061 105.491408 171.111221 -14.186605 144.272186 -1.582687 1.556642 0.264108 -37.21472 25.670504 34.003079 -108.427234 34.160246 91.742532 -164.842633 -12.035916 116.210328 -160.098382 -4.901415 142.967845 -163.017405 -3.98735 142.880249 -145.118591 0.226538 -179.1997 10.754073 6.917436 -8.156595 -11.660855 -23.131581 -11.068934 -153.636933 35.939374 -148.133608 40.042706 -86.055908 61.573695 98.333946 -25.448481 103.986256 9.674536 3.96604 71.213109 -152.707228 -45.522245 -134.04101 85.829261 38.629088 -47.955584 -129.6662 -53.382336 -56.256211 148.887432 -12.609415 -120.244734 47.823506 55.083682 -32.72058 -2.101373 -6.305284 1.080447 179.683459 -48.708108 -141.477542 145.097558 -1.605649 178.624963 -11.263955 12.395612 7.528795 157.32428 57.246042 150.516801 81.21209 -52.904377 79.975082 -179.986813 75.749427 -0.009023 166.034178 6.9995 -88.620965 -84.382003 -2.608967 -75.23247 38.189051 15.741145 178.322287 179.97384 75.749284 0.017898 -154.829815 81.061646 122.654925 22.455658 -34.758616 -93.527825 -150.673581 -4.441482 -9.67009
-1.4491 67.9793 1.415 179.029734 -49.421862 -173.325084 -8.452468 5.846343 -80.880444 7.408083 4.057992 64.751803 3.199088 41.260216 156.212481 -17.583482 41.095675 147.865944 0.002929 -0.0 -0.003964 0.003028 0.0 0.001105 -33.835494 -85.665868 -55.252784 -73.005245 -39.999922 -80.754518 5.042836 -4.103811 -75.724394 167.187052 -24.598467 142.556232 -179.372761 -16.877406 89.359779 148.027525 -49.426126 103.192176 -19.170393 24.11452 13.38111 72.758472 -58.037316 26.651664 -0.571955 1.648241 0.321779 -168.733542 -21.684342 144.326848 -145.120196 0.267754 -179.212447 -141.832923 -56.542732 -163.974172 -81.136973 -51.205334 -79.556051 -176.62461 78.336711 -139.52025 150.144655 21.617516 -155.247751 -66.553643 -63.364211 -119.070132 150.375024 80.992551 -79.429104 -160.00343 -34.740639 -139.640474 176.42733 -14.046944 -89.706488 110.916699 16.297765 -49.763921 140.684681 1.505599 -116.182669 1.873571 20.304094 4.602623 0.968814 2.779647 -0.55366 -80.539763 -78.004324 -52.065898 70.379662 -72.129851 87.28018 78.875171 83.135794 -96.719061 87.575337 -50.208343 85.929927 -68.129503 84.80081 28.995784 -0.003268 0.000202 -0.001634 -36.210687 -65.05197 -180.0 -71.921976 -62.753523 -3.463982 15.545792 7.9443 122.118006 0.004085 0.000202 0.004085 4.456997 6.013045 -180.0 10.314554 -49.451144 32.575751 80.491284 41.747254 151.28722
-1.4806 67.9778 1.3958 179.12335 -49.450973 -173.368885 -12.376379 7.310286 40.804244 1.704257 -12.045562 -56.194465 -10.949103 25.319237 -27.266641 23.637363 -18.946893 -27.870248 0.004498 0.0 0.002396 -0.000889 -0.0 0.000257 -36.84411 -85.870454 -58.319628 -176.175909 2.996187 -135.599856 14.179321 -78.757089 52.744202 -8.414092 26.814015 1.197735 -171.604618 -9.285694 89.950244 -137.970035 9.876768 69.357823 -4.707626 7.223833 2.854368 -61.355307 48.024022 46.346408 -160.575569 -6.359062 143.197812 -42.498998 58.272266 36.599962 -145.11931 0.185132 -179.18728 -79.45151 87.679877 92.757985 -140.293216 -1.77291 -137.384732 -175.025165 74.220676 -140.386275 -0.117819 -0.714054 0.158073 35.442265 80.913745 -115.395252 36.173165 -78.029041 -0.36278 4.656942 22.475167 -1.240009 5.432657 5.265299 -1.078503 139.7398 -44.345173 -116.281798 173.601227 -52.692687 -119.892682 -49.525215 -53.868459 -1.11107 125.642327 49.8393 -115.273678 4.64866 20.781705 -4.545454 145.117472 0.184758 179.187908 71.278497 -78.003903 92.776506 126.797953 -26.620297 124.51355 93.65351 -50.313366 93.512509 0.0 0.000325 -0.000131 -34.852188 -62.905888 -32.103693 20.452104 74.731527 68.635212 -126.40118 -81.884149 141.938101 0.0 0.000325 -0.000131 4.487731 6.047518 -180.0 13.402373 -45.348925 76.046351 -77.93821 46.41956 -164.726545
-1.5011999999999999 67.97840000000001 1.4144999999999999 179.162942 -49.506173 -173.434196 -8.431997 5.905554 -81.253644 7.345816 4.118867 65.11472 3.101086 41.532754 157.629089 -16.620808 41.785779 146.374543 -0.002317 -0.0 0.001023 0.003395 0.0 0.000731 -33.844663 -85.665279 -55.262009 -93.687789 -40.842247 -95.146307 9.526991 14.307827 -77.368209 169.277535 -19.387946 143.517536 -17.201601 15.600481 4.929354 -128.596106 -28.53936 106.819451 6.168258 -10.617987 -3.073242 8.506838 6.159278 0.321458 -160.098645 -4.901289 142.968141 -153.948037 19.917013 138.338472 -13.61947 -53.679765 -25.682554 -122.299822 -81.12256 -148.201616 -0.292258 -0.752976 -0.269072 -128.016852 -30.112259 -126.4098 85.537257 68.181812 -88.688897 -75.382263 -16.051961 -85.792452 -67.82978 -39.759105 -81.345419 74.469927 76.213944 -57.456011 82.97906 38.721228 -45.931399 126.144641 -19.194031 -79.215232 -2.326274 -3.867571 1.26033 165.985361 -20.588769 -109.697252 151.477373 17.84207 -137.539406 25.493835 49.03901 -21.178854 -0.003839 1.771403 -0.556397 141.969684 -80.961487 164.269403 85.783172 -50.535139 84.154986 154.017319 37.071585 147.15494 0.001941 0.001664 0.00097 -36.228686 -65.008244 -180.0 -72.970088 -50.051169 -155.743374 -129.112863 -64.873608 139.573595 -179.967309 75.75042 -0.026898 -147.479499 82.813135 -0.0 27.164736 30.973213 22.293452 -44.83771 -15.673803 -28.296806
-1.518 67.9725 1.4168999999999998 179.041435 -49.485333 -173.278876 -10.811102 7.925542 -0.0 7.643994 -8.557052 -15.009305 -15.291731 32.617172 -72.745306 37.968048 4.735901 14.075116 0.003309 0.0 0.004603 -0.002504 0.0 -0.000195 -40.764275 63.150149 43.382523 -122.693154 -1.68583 124.875783 -144.547485 13.987563 -154.765237 3.350927 -9.474165 0.813471 -103.19955 36.331904 60.111815 -27.041442 -11.146478 32.960219 2.325852 -3.867705 -1.260201 18.202814 -8.820893 -1.41137 -89.834725 60.702959 81.263315 3.624674 -0.580627 0.091362 -145.121229 1.975687 -179.748325 -152.547438 76.070684 167.131081 -54.045796 -50.330514 -52.728261 -23.937566 -41.098012 -25.796649 158.920762 -37.396937 -168.28232 43.085354 12.643407 29.913724 -11.869237 -37.758442 68.802639 -164.705259 -25.011798 -142.789566 173.977294 -11.643105 -89.880949 53.863653 -9.233506 -10.56164 140.763727 1.380616 -116.228862 173.515318 -34.48473 -117.216702 160.673191 -6.668 -143.244596 166.859251 -15.600022 -143.760705 31.707182 -66.110135 46.279931 141.426196 61.98671 -160.551569 17.348093 -30.441753 16.587793 -4.225113 3.270217 -0.795597 -179.998063 75.74826 -0.000992 163.951143 7.821613 47.354298 63.580991 41.851429 -57.716412 102.829075 -22.472642 -3.965281 -0.0 0.000689 0.00147 3.606273 6.463135 128.614461 31.938203 -20.760151 -124.345626 28.739169 -15.146417 44.523268
